# xmcd
# 
# Track frame offsets:
#     150
#     22796
#     29351
#     46758
#     63635
#     76511
#     90436
#     100339
#     125453
#     136316
#     157425
# 
# Disc length: 2309
# 
# Revision: 0
# Processed by: cddbd v1.5.2PL0 Copyright (c) Steve Scherf et al.
# Submitted via: fre:ac v1.0.17
# 
DISCID=8209030b
DTITLE=Fenton Robinson - Blues Jam Live Audio
DYEAR=2010
DGENRE=Blues
TTITLE0=1101 Too Many Drivers
TTITLE1=Instrumental
TTITLE2=Somebody Loan Me A Dime
TTITLE3=Night Riding Daddy
TTITLE4=Only Lovin' Man
TTITLE5=I Feel So Bad
TTITLE6=My Little Girl
TTITLE7=Three Way Party
TTITLE8=Crazy By Degrees
TTITLE9=I Just Want A Little Bit
TTITLE10=So Long
EXTD=
EXTT0=
EXTT1=
EXTT2=
EXTT3=
EXTT4=
EXTT5=
EXTT6=
EXTT7=
EXTT8=
EXTT9=
EXTT10=
PLAYORDER=
